<svg xmlns="http://www.w3.org/2000/svg" width="213" height="112" viewBox="0 0 213 112">
    <g fill="none">
        <path fill="#FFF" d="M8.072 63.5c1.968 0 3.835-.662 4.138-1.12.302-.458.605-.61.857-.61.253 0 .505.102.808.203 1.765.51 3.43.764 5.045.764 7.517 0 13.067-5.191 13.067-11.552 0-.916-.1-1.832-.353-2.748-1.463-5.801-7.063-7.837-12.916-9.007 8.98-2.443 13.774-11.4 13.774-19.847 0-6.463-2.775-12.62-8.628-15.317-1.715-.814-3.28-1.069-4.641-1.069-3.129 0-5.298 1.476-5.702 1.832v-.153c0-1.424-2.926-2.544-6.004-2.544-3.077 0-6.256 1.069-6.71 4.071C.303 14.036 0 21.517 0 28.59c0 12.112.908 23.104 3.33 31.704.555 2.443 2.674 3.206 4.742 3.206zm5.298-25.851c-.454 0-.757-.102-.757-.357v-.101c-.1-1.476-.1-3.512-.1-5.853 0-8.142.403-19.693.756-21.933.202-1.272 2.825-2.29 4.995-2.29h.454c3.834.459 5.701 4.937 5.701 10.382 0 7.226-3.229 16.182-9.384 19.745-.353.203-1.11.407-1.665.407zm4.844 21.983h-.707c-2.119-.203-4.692-.712-4.742-2.85-.152-3.154-.505-6.36-.505-9.414 0-.56.05-1.068.05-1.628v-.051c0-2.24 2.422-2.595 3.936-2.595.353 0 .706.05.908.05 5.55.459 7.618 5.09 7.618 8.245 0 5.699-2.573 8.243-6.558 8.243zm26.172-8.701c7.013-.51 10.898-8.295 10.898-15.725 0-7.074-3.532-13.893-11.251-13.893-6.862 0-9.94 6.921-9.94 14.046 0 7.633 3.532 15.572 9.738 15.572h.555zm-.959-3.817h-.151c-2.422 0-3.582-5.547-3.582-10.941 0-5.14 1.06-10.127 3.229-10.229h.151c3.027 0 4.188 4.326 4.188 9.058 0 5.75-1.716 12.112-3.835 12.112zm24.558 3.817c7.013-.51 10.898-8.295 10.898-15.725 0-7.074-3.532-13.893-11.25-13.893-6.862 0-9.94 6.921-9.94 14.046 0 7.633 3.532 15.572 9.737 15.572h.555zm-.958-3.817h-.152c-2.421 0-3.582-5.547-3.582-10.941 0-5.14 1.06-10.127 3.23-10.229h.15c3.028 0 4.188 4.326 4.188 9.058 0 5.75-1.715 12.112-3.834 12.112zm19.815 9.312c6.559-.712 4.39-12.162 5.247-13.18 1.413-1.679 2.926-3.358 4.39-5.038.05-.05.151-.101.201-.101 1.11 0 1.867 8.294 3.633 10.839.807 1.17 1.867 1.781 3.027 1.781.656 0 1.413-.204 2.12-.662 1.715-1.068 2.32-3.562 2.32-6.462 0-5.395-2.27-11.96-4.238-11.96h-.1c2.27-2.29 4.136-4.325 6.003-6.615.353-.458.555-.916.555-1.323 0-1.018-.908-1.73-1.917-1.73-.353 0-.707.05-1.06.254-2.522.357-10.09 7.939-14.48 13.588 0-1.222 3.23-30.228 3.23-30.228 0-.153.05-.305.05-.407C95.823 2.536 92.24.5 88.81.5c-3.33 0-6.56 1.883-6.56 6.82v.66c.051 2.29.051 4.58.051 6.769 0 9.516-.252 17.862-.252 24.579 0 10.737.706 17.098 4.44 17.098h.353zM55.134 111.5c4.509 0 9.93-3.48 9.93-7.981-.102-10.13-13.577-7.214-16.11-23.126-.102-.563-.152-1.535-.152-2.66 0-4.042.912-10.642 5.47-12.689.457-.204.811-.307 1.166-.307 2.28 0 2.685 4.042 2.685 8.596 0 2.353-.101 4.911-.101 7.06 0 1.484.05 2.763.202 3.684.406 2.2 1.774 3.12 3.192 3.12 1.266 0 2.584-.716 3.394-1.892 1.621-2.354 2.635-6.498 2.635-10.796 0-7.265-2.888-14.94-10.538-15.4h-.506C48.092 59.11 41 70.16 41 81.365c0 3.07.557 6.19 1.773 9.107 4.61 10.795 17.376 8.34 17.528 13.149v.051c0 1.688-2.634 3.07-4.154 3.121h-.304c-4.154 0-3.748-4.912-7.75-4.912-.355 0-.76.052-1.216.154-1.064.205-1.672 1.177-1.672 2.456 0 2.609 2.685 6.497 9.27 7.009h.66zm33.93-1.228c2.685 0 4.103-2.251 4.812-5.014.507-2.149 2.381-9.516 2.381-16.884 0-8.8-2.634-17.65-13.323-17.65h-.861c-8.106 0-12.26 4.757-12.26 11.716 0 .358.05.767.05 1.125.102 1.74 1.622 2.712 3.04 2.712 1.267 0 2.432-.768 2.432-2.507.101-7.93 4.002-10.437 6.434-10.54 6.636.205 5.724 9.721 5.876 15.4v.205c0 .307-.05.46-.202.46-.507 0-2.179-1.995-6.282-1.995-7.194 0-11.095 6.549-11.095 11.767 0 .973.152 1.842.405 2.66 1.267 4.043 3.699 7.624 9.677 7.624h.709c4.56-.256 5.572-3.479 5.876-3.479 0 0 .051 0 .051.051.101.307.152.614.152.921 0 .819-.304 1.535-.304 2.149 0 .665.355 1.074 1.925 1.228.152 0 .355.051.507.051zm-7.65-3.837h-.05c-3.8-.102-4.56-3.99-4.56-7.112 0-1.74.253-3.274.304-3.632.355-1.996 1.57-5.372 6.13-5.424 1.925 0 4.56 1.638 4.56 2.252v2.558c0 1.125-.051 2.865-.457 6.6-.101 1.125-2.431 4.758-5.927 4.758zm39.806.87c.608 0 1.216-.205 1.824-.512 2.33-.87 4.407-8.288 4.407-15.707 0-6.702-1.722-13.405-6.535-14.99-1.418-.615-2.837-.82-4.205-.82-3.394 0-6.23 1.433-7.143 1.69.051-.206.051-.41.051-.615 0-2.2-2.533-3.888-5.117-3.888-2.28 0-4.56 1.279-5.268 4.553-.304 1.28-.456 5.73-.456 10.744 0 6.14.253 13.2.658 16.168.304 1.995 2.28 3.019 4.256 3.019 1.874 0 3.698-.921 4.002-2.712 1.064-6.14 1.824-13.149 2.026-19.39 0-.461-.05-.973-.05-1.485 0-.716.101-1.432.456-2.097 1.063-1.842 3.343-3.275 5.319-3.275 1.064 0 2.026.46 2.634 1.433 1.47 2.2 1.925 5.219 1.925 8.493 0 5.577-1.317 11.87-1.317 15.605 0 1.586.203 2.711.861 3.223.507.358 1.064.563 1.672.563zm20.302 2.353c10.841 0 12.665-10.949 12.665-14.786 0-.307-.05-.563-.05-.767-.153-1.33-1.672-2.2-3.243-2.2-1.62 0-3.293.972-3.293 3.325v.46c0 3.838-1.722 10.49-5.522 10.54h-.05c-2.386 0-3.114-6.353-3.14-13.406l-.001-.408c0-8.493 1.013-17.753 1.317-17.753 2.077-.051 6.991-.665 7.903-1.28.355-.255.507-.562.507-.869 0-.716-.811-1.381-1.368-1.586-.71-.205-5.42-.563-6.383-.716-.507 0-.71-.103-.71-.563v-.205c.304-2.251.963-5.73.963-8.595 0-1.126-.101-2.149-.355-2.968-.304-.87-1.976-1.381-3.546-1.381-1.57 0-3.04.46-3.192 1.484-.354.665-1.165 10.693-1.367 12.33-2.888 0-5.472 1.381-5.472 2.302v.051c.304 1.535 2.685 1.893 5.016 2.15-.254 6.753-.558 12.636-.558 17.497 0 11.307 1.672 17.344 9.626 17.344h.253zm34.284.614c2.685 0 4.104-2.251 4.813-5.014.507-2.149 2.381-9.516 2.381-16.884 0-8.8-2.634-17.65-13.324-17.65h-.86c-8.106 0-12.26 4.757-12.26 11.716 0 .358.05.767.05 1.125.101 1.74 1.621 2.712 3.04 2.712 1.266 0 2.431-.768 2.431-2.507.102-7.93 4.003-10.437 6.434-10.54 6.637.205 5.725 9.721 5.877 15.4v.205c0 .307-.05.46-.203.46-.506 0-2.178-1.995-6.282-1.995-7.193 0-11.094 6.549-11.094 11.767 0 .973.152 1.842.405 2.66 1.267 4.043 3.698 7.624 9.676 7.624h.71c4.559-.256 5.572-3.479 5.876-3.479 0 0 .05 0 .05.051.102.307.153.614.153.921 0 .819-.304 1.535-.304 2.149 0 .665.354 1.074 1.925 1.228.152 0 .354.051.506.051zm-7.65-3.837h-.05c-3.8-.102-4.56-3.99-4.56-7.112 0-1.74.254-3.274.305-3.632.354-1.996 1.57-5.372 6.13-5.424 1.924 0 4.559 1.638 4.559 2.252v2.558c0 1.125-.05 2.865-.456 6.6-.101 1.125-2.432 4.758-5.927 4.758z"/>
        <g>
            <path fill="#E14B4B" d="M9 27.777s4.07-15.785 20.35-22.399c0 0 6.414-9.182 26.395-3.55 0 0 5.921 3.917 6.908 6.12 0 0 8.756 1.47 8.756 11.507 0 0 1.727 2.572 1.234 8.937L74 41.982 67.462 47l-.37-2.447s-6.29-9.428-6.66-12.364c0 0-1.726-1.347-1.726 1.959l1.726 5.14-47.98-3.69L9 27.778z" transform="rotate(10 -1.728 769.273)"/>
            <g fill="#D03F3E">
                <path d="M27.944 18.247C26.566 12.018 24.551 5.937 21.91.135c1.234.901 3.278 2.47 4.583 3.876.886 4.69 1.363 9.456 1.451 14.236zM10.147 4.603c.536-.03 1.001.192 1.407.547-.462-.192-.942-.37-1.407-.547zM25.42 29.95c-.173-.12-1.652-1.138-1.667 1.954-.653-.887-1.204-1.893-1.829-2.798-1.74-2.545-4.264-4.423-6.73-6.258-4.714-3.507-9.571-7.074-15.17-8.76 2.756-.147 5.44.86 8.005 1.879 5.077 2.013 10.311 4.336 13.663 8.701-.015-2.93-1.552-5.594-3.046-8.094l-5.875-9.856c-.333-.562-.74-1.169-1.22-1.568 2.177.844 4.28 1.878 5.918 3.536 2.176 2.206 3.263 5.253 4.22 8.227 1.381 4.294 2.63 8.657 3.731 13.038z" transform="rotate(10 -1.728 769.273) translate(34 3)"/>
            </g>
            <g fill="#FFF">
                <path d="M.053 16.94c0-1.892-.017.28-.035-.512-.07 2.128-.025-9.6 1.82-10.837C3.158 4.288 4.366.335 5.423 1.85c.903-.74 1.533.35 2.04-.953.508-.26.893-1.436 1.303-.184.41-.29.847.847 1.46.498.612.899 1.397.349 2.51 1.093 0 .852.412-1.024 1.035-.118.625.78 1.46.162 2.31-.341.85-.874 1.715-1.368 2.392-.543.51.587 1.22.734 2.003-.125.78-.712 1.632-.46 2.417.341.788 1.076 1.51 1.157 2.038.462.527.76.855-.248.855.23 0 .035.2.732.56-.021.36-.194.875.395 1.507-.035.633.896 1.38-.16 2.198.003.82-.815 1.71-1.473 2.63.086.92-.678 1.867-.457 2.802.218.935-.292 1.855-.076 2.72.4.863-.194 1.67 1.198 2.375.626.708-.677 1.313-1.274 1.775.904 0-.452.218.623.608.142.39.24.95-.233 1.635.4.685-.051 1.492.307 2.38.616.885-.932 1.847.62 2.84.796.992.498 2.015 1.699 3.017.93 1.005-.96 1.99.47 2.913 1.027.922 1.735 1.78.392 2.525 1.082.745.361 1.38.12 1.852 1.098 0 .022.403 1.29.473 1.352.13.197.272 1.69.41 1.581.557 1.476.882 8.095-.048 10.702 0-.008-.11-.457-.335.383-.225.152-.565-.339-1.02.812-.455.626-1.03.266-1.722.73-.693 1.146-1.508.643-2.443.135-.935-.514-1.995-.914-3.18-.97 0-1.161-.07-.359-.205-.069-.135.609-.337-.582-.602-.191-.265-1.483-.593.164-.978-.295-.387-.405-.832.017-1.335-.373-.502 1.215-1.06-.489-1.67-.432-.61-.874-1.275-1.567-1.987-.472-.713.12-1.475-1.38-2.283-.486-.807-.798-1.662.806-2.56-.48-.897.355-1.837-.71-2.815-.455-.98-.368-1.997.204-3.052-.405-1.055.073-2.145.272-3.268-.336-1.122-.13-2.28-.897-3.465-.244-1.185-.48-2.4-.132-3.64-.13-1.24-.43-2.507-.154-3.797.003-2.253-.557-4.23-.138-5.963.032-1.732.191-3.22-.153-4.497-.167-1.278-.302-2.345-.43-3.238-.3-.892 1.044-1.61-.451-2.185-.373-.575-.162-1.01-1.107-1.337-.39-.328-.032-.55-.923-.7-.351-.15-.172-.228.135-.268-.253-.04.503-.042 1.2-.042-.098 0 1.541-.44.353-.948-.42-.512.103-1.092.913-1.37-1.581zM78.98 16.98c2.206 3.425.548 8.652-2.94 10.817-3.487 2.165-8.102 1.141-10.307-2.283-2.205-3.425-1.162-7.957 2.325-10.122 3.485-2.166 8.718-1.84 10.923 1.588z" transform="rotate(10 -1.728 769.273) translate(0 28)"/>
            </g>
            <g fill="#CBD6E0">
                <path d="M13.956 9.997c-.64 1.144-1.55 2.118-2.634 2.8-3.421 2.167-7.975 1.144-10.141-2.264C-.985 7.148.024 2.644 3.47.5c.171-.097.32-.194.491-.267-1.181 2.215-1.156 4.99.296 7.255 2.068 3.263 6.35 4.334 9.698 2.508zM4.3.382c.03-.097.014-.197-.018-.292l-.034.017.052.275z" transform="rotate(10 -1.728 769.273) translate(65 43)"/>
            </g>
        </g>
    </g>
</svg>
